<?xml version="1.0" encoding="UTF-8" standalone="no"?>
<!DOCTYPE svg PUBLIC "-//W3C//DTD SVG 1.1//EN" "http://www.w3.org/Graphics/SVG/1.1/DTD/svg11.dtd">
<svg width="100%" height="100%" viewBox="0 0 227 43" version="1.1" xmlns="http://www.w3.org/2000/svg" xmlns:xlink="http://www.w3.org/1999/xlink" xml:space="preserve" xmlns:serif="http://www.serif.com/" style="fill-rule:evenodd;clip-rule:evenodd;stroke-linejoin:round;stroke-miterlimit:2;">
    <g transform="matrix(1,0,0,1,-86.9407,-104)">
        <g id="Artboard2" transform="matrix(0.991518,0,0,1,2.50823,-0.623518)">
            <rect x="85.155" y="104.624" width="228.79" height="42.536" style="fill:none;"/>
            <g transform="matrix(0.40315,0,0,0.39973,87.4863,106.412)">
                <path d="M36,8.7C36.8,8.7 37.6,8.6 38.4,8.6C43.8,8.6 49,9.6 53.9,11.6C58.9,13.6 62.8,17 65.7,21.7L53.9,30.7C52.1,28.4 49.9,26.6 47.2,25C44.6,23.5 41.3,22.7 37.5,22.7L36,22.7M36.1,92.7L35.5,92.7C28.9,92.7 23,91.7 18,89.7C13,87.7 8.5,84 4.6,78.6L16.1,69.1C18.6,71.6 21.3,73.8 24.4,75.7C27.4,77.6 31.2,78.6 35.5,78.6L36.1,78.6" style="fill:rgb(108,70,211);fill-rule:nonzero;"/>
            </g>
            <g transform="matrix(0.40315,0,0,0.39973,87.4863,106.412)">
                <path d="M143.6,31.9C140.8,29 137.8,26.7 134.7,25.2C131.6,23.7 127.9,22.9 123.6,22.9C119.4,22.9 115.8,23.7 112.7,25.2C109.6,26.7 107,28.8 104.9,31.5C102.8,34.1 101.2,37.2 100.2,40.6C99.1,44 98.6,47.6 98.6,51.3C98.6,55 99.2,58.5 100.5,61.9C101.7,65.2 103.5,68.1 105.7,70.6C108,73.1 110.7,75 113.8,76.4C117,77.8 120.5,78.5 124.4,78.5C128.7,78.5 132.3,77.7 135.4,76.2C138.4,74.7 141.3,72.5 143.8,69.5L154.6,80.3C150.7,84.7 146.1,87.8 140.8,89.8C135.6,91.7 130,92.7 124.2,92.7C118,92.7 112.3,91.7 107.2,89.7C102.1,87.7 97.7,84.8 93.9,81.2C90.2,77.5 87.3,73.1 85.3,68C83.3,62.9 82.3,57.2 82.3,51C82.3,44.8 83.3,39.1 85.3,33.9C87.3,28.7 90.2,24.3 93.8,20.6C97.5,16.9 101.9,14 107,11.9C112.1,9.8 117.8,8.8 124.1,8.8C130,8.8 135.6,9.8 140.9,11.9C146.2,14 150.9,17.2 154.8,21.4L143.6,31.9Z" style="fill:rgb(108,70,211);fill-rule:nonzero;"/>
            </g>
            <g transform="matrix(0.40315,0,0,0.39973,87.4863,106.412)">
                <path d="M184.1,55L184.1,90.7L168.9,90.7L168.9,55" style="fill:rgb(108,70,211);fill-rule:nonzero;"/>
            </g>
            <g transform="matrix(0.40315,0,0,0.39973,87.4863,106.412)">
                <path d="M453.4,31.9C450.6,29 447.6,26.7 444.5,25.2C441.4,23.7 437.7,22.9 433.4,22.9C429.2,22.9 425.6,23.7 422.5,25.2C419.4,26.7 416.8,28.8 414.7,31.5C412.6,34.1 411,37.2 410,40.6C408.9,44 408.4,47.6 408.4,51.3C408.4,55 409,58.5 410.3,61.9C411.5,65.2 413.3,68.1 415.5,70.6C417.8,73.1 420.5,75 423.6,76.4C426.8,77.8 430.3,78.5 434.2,78.5C438.5,78.5 442.1,77.7 445.2,76.2C448.2,74.7 451.1,72.5 453.6,69.5L464.4,80.3C460.5,84.7 455.9,87.8 450.6,89.8C445.4,91.7 439.8,92.7 434,92.7C427.8,92.7 422.1,91.7 417,89.7C411.9,87.7 407.5,84.8 403.7,81.2C400,77.5 397.1,73.1 395.1,68C393.1,62.9 392.1,57.2 392.1,51C392.1,44.8 393.1,39.1 395.1,33.9C397.1,28.7 400,24.3 403.6,20.6C407.3,16.9 411.7,14 416.8,11.9C421.9,9.8 427.6,8.8 433.9,8.8C439.8,8.8 445.4,9.8 450.7,11.9C456,14 460.7,17.2 464.6,21.4L453.4,31.9Z" style="fill:rgb(108,70,211);fill-rule:nonzero;"/>
            </g>
            <g transform="matrix(0.40315,0,0,0.39973,87.4863,106.412)">
                <path d="M489.1,56.2C489.1,59.7 489.9,62.9 491.4,65.7C492.9,68.6 494.9,71 497.4,73C499.9,75 502.7,76.6 506,77.7C509.3,78.8 512.6,79.4 516.1,79.4C520.8,79.4 524.9,78.3 528.4,76.1C531.9,73.9 535.1,71 538,67.4L549.5,76.2C541.1,87.1 529.2,92.6 514,92.6C507.7,92.6 502,91.5 496.9,89.4C491.8,87.3 487.4,84.3 483.9,80.5C480.4,76.7 477.6,72.3 475.7,67.2C473.8,62.1 472.8,56.5 472.8,50.6C472.8,44.6 473.8,39.1 475.9,34C478,28.9 480.9,24.4 484.5,20.7C488.2,16.9 492.5,14 497.6,11.8C502.7,9.7 508.2,8.6 514.2,8.6C521.3,8.6 527.3,9.8 532.2,12.3C537.1,14.8 541.1,18 544.3,22C547.5,26 549.7,30.5 551.1,35.5C552.5,40.5 553.2,45.6 553.2,50.8L553.2,56.2L489.1,56.2ZM537,44.1C536.9,40.7 536.4,37.6 535.4,34.8C534.4,32 533,29.5 531.1,27.5C529.2,25.4 526.8,23.8 523.9,22.6C521,21.4 517.7,20.8 513.8,20.8C510.1,20.8 506.7,21.5 503.6,22.9C500.5,24.3 497.9,26.1 495.7,28.4C493.6,30.7 491.9,33.2 490.7,35.9C489.5,38.7 488.9,41.4 488.9,44.1L537,44.1Z" style="fill:rgb(108,70,211);fill-rule:nonzero;"/>
            </g>
            <g transform="matrix(0.40315,0,0,0.39973,87.4863,106.412)">
                <path d="M15.4,49.3C17.7,51 20.2,52.3 23.2,53.4C26.1,54.4 29.2,55.3 32.5,56.1C33.6,56.3 34.8,56.5 36,56.8L36,42.5C34.6,42.1 33.2,41.6 31.9,41.1C29.8,40.2 28,39 26.5,37.6C25,36.1 24.2,34.2 24.2,31.9C24.2,29 25.5,26.7 28.2,25.2C30.5,23.9 33.1,22.9 36.1,22.7L36.1,8.7C33.2,8.9 30.3,9.3 27.4,10.1C23.7,11.1 20.5,12.6 17.6,14.7C14.7,16.7 12.4,19.3 10.7,22.4C8.8,25.5 8,29.1 8,33.2C8,37 8.7,40.2 10,42.8C11.3,45.5 13.1,47.6 15.4,49.3Z" style="fill:rgb(255,116,154);fill-rule:nonzero;"/>
            </g>
            <g transform="matrix(0.40315,0,0,0.39973,87.4863,106.412)">
                <path d="M57.6,87C60.6,85 63.1,82.4 65,79.1C66.9,75.9 67.9,72 67.9,67.5C67.9,63.8 67.3,60.6 66.1,58C64.9,55.4 63.3,53.2 61.2,51.4C59.1,49.6 56.6,48.1 53.8,47C51,46 47.9,45 44.6,44.2C42.9,43.9 40.9,43.5 38.5,43C37.6,42.8 36.8,42.7 36,42.5L36,56.8C36.7,57 37.5,57.1 38.3,57.3C40.5,57.8 42.6,58.5 44.5,59.3C46.5,60.1 48.2,61.3 49.6,62.8C51,64.3 51.7,66.1 51.7,68.4C51.7,70.1 51.2,71.6 50.3,72.9C49.3,74.2 48.1,75.3 46.6,76.1C45.1,76.9 43.3,77.6 41.4,78C39.6,78.4 37.8,78.5 36.1,78.6L36.1,92.7C39.9,92.7 43.6,92.3 47.3,91.5C51.1,90.5 54.6,89 57.6,87Z" style="fill:rgb(93,255,216);fill-rule:nonzero;"/>
            </g>
            <g transform="matrix(0.40315,0,0,0.39973,87.4863,106.412)">
                <rect x="357.9" y="57" width="15.2" height="34" style="fill:rgb(93,255,216);"/>
            </g>
            <g transform="matrix(0.40315,0,0,0.39973,87.4863,106.412)">
                <rect x="168.9" y="10.6" width="15.2" height="44.4" style="fill:rgb(255,116,154);"/>
            </g>
            <g transform="matrix(0.40315,0,0,0.39973,87.4863,106.412)">
                <path d="M370.8,25.4C369.2,21.5 367.1,18.3 364.5,15.9C361.9,13.4 358.8,11.6 355.2,10.4C351.9,9.3 348.5,8.7 345,8.7L330.3,8.8C326.8,8.8 323.4,9.4 320.1,10.5C316.5,11.7 313.4,13.5 310.8,16C310.4,16.3 269,68 269,68C266.1,71.6 262.6,74 259.1,76.2C255.6,78.4 251.5,79.5 246.8,79.5C243.3,79.5 239.9,78.9 236.7,77.8C233.4,76.7 230.6,75.1 228.1,73.1C225.6,71.1 223.6,68.6 222.1,65.8C220.6,62.9 219.8,59.7 219.8,56.3L273.7,56.3L283.6,44.1C283.6,44.1 282.7,38.4 281.9,35.6C280.5,30.6 278.2,26.1 275.1,22.1C271.9,18.1 267.9,14.9 263,12.4C258.1,9.9 252.1,8.7 245,8.7C239,8.7 233.5,9.8 228.4,11.9C223.3,14 219,17 215.3,20.8C211.6,24.6 208.8,29 206.7,34.1C204.6,39.2 203.6,44.8 203.6,50.7C203.6,56.7 204.6,62.2 206.5,67.3C208.4,72.4 211.1,76.9 214.7,80.6C218.2,84.4 222.6,87.3 227.7,89.5C232.8,91.6 238.5,92.7 244.8,92.7C260,92.7 272.6,86.9 281,76L302.2,51.2L302.2,90.7L317.4,90.7L317.4,49.4C317.4,44.9 318,40.9 319.1,37.5C320.1,34.3 321.7,31.6 323.5,29.4L325.8,27.2C327.3,26 329,25 330.9,24.3C333.6,23.3 336.5,22.8 339.7,22.8C342.1,22.8 344.3,23.2 346.5,23.9C348.7,24.6 350.6,25.8 352.3,27.4C354,29 355.3,31.2 356.4,33.8C357.4,36.4 357.9,39.6 357.9,43.3L357.9,57L373.1,57L373.1,39.2C373.2,33.9 372.4,29.3 370.8,25.4ZM221.6,35.9C222.8,33.1 224.4,30.6 226.6,28.4C228.7,26.1 231.4,24.3 234.5,22.9C237.6,21.5 241,20.8 244.7,20.8C248.5,20.8 251.9,21.4 254.8,22.6C257.7,23.8 260.1,25.4 262,27.5C263.9,29.6 265.3,32 266.3,34.8C267.3,37.6 267.8,40.7 267.9,44.1L219.9,44.1C219.8,41.4 220.4,38.6 221.6,35.9Z" style="fill:rgb(108,70,211);fill-rule:nonzero;"/>
            </g>
        </g>
    </g>
</svg>
